<?xml version="1.0" standalone="no"?><!DOCTYPE svg PUBLIC "-//W3C//DTD SVG 1.1//EN" "http://www.w3.org/Graphics/SVG/1.1/DTD/svg11.dtd"><svg t="1615254261846" class="icon" viewBox="0 0 1024 1024" version="1.1" xmlns="http://www.w3.org/2000/svg" p-id="15802" xmlns:xlink="http://www.w3.org/1999/xlink" width="128" height="128"><defs><style type="text/css"></style></defs><path d="M926.894829 377.930927c-18.382049 0-33.267512 13.386927-33.267512 29.770927 0 6.893268 2.697366 13.187122 7.093073 18.282146-13.686634-3.396683-29.671024 1.098927-33.467317 18.082341-1.398634 6.493659 0.39961 13.187122 4.395707 18.681757 3.796293 4.995122-3.29678 8.291902-7.093073 12.487804-16.78361 17.18322-33.367415 34.566244-50.051122 51.849366-25.175415 25.974634-50.250927 51.949268-75.426341 78.123708-0.39961 0.39961-0.79922 0.79922-1.198829 1.298731-4.995122-69.132488-9.690537-138.264976-14.885464-207.397463-0.199805-3.796293 9.390829-5.594537 12.587708-8.092098 6.094049-4.995122 9.390829-12.088195 8.891317-19.480975-0.39961-6.193951-3.29678-11.588683-7.992196-15.784586 0.699317 0.099902 1.298732 0.199805 2.097952 0.199805 22.278244 0 40.460488-16.284098 40.460488-36.364488 0-20.08039-18.182244-36.364488-40.460488-36.364487-22.478049 0-40.460488 16.284098-40.460488 36.364487 0 11.988293 6.493659 22.577951 16.583805 29.171513-14.985366 1.698341-26.673951 13.886439-24.17639 27.87278 1.198829 6.293854 4.795317 11.288976 9.990243 15.584781 2.597463 2.097951-7.692488 15.185171-9.390829 17.882536-31.768976 52.149073-63.537951 104.198244-95.306927 156.347317-26.274341-97.604683-52.548683-195.209366-78.823024-292.714146 12.587707-1.998049 22.078439-11.788488 22.078439-23.776781 0-8.291902-4.795317-15.784585-11.988293-20.08039 14.585756-5.194927 25.075512-18.082341 25.075512-33.16761 0-19.68078-17.782634-35.765073-39.861073-35.765073-21.978537 0-39.861073 15.98439-39.861073 35.765073 0 15.085268 10.289951 27.87278 25.075512 33.16761-7.192976 4.295805-11.988293 11.788488-11.988292 20.08039 0 11.88839 9.490732 21.578927 22.078439 23.776781-26.274341 97.604683-52.548683 195.209366-78.823025 292.714146-31.768976-52.149073-63.537951-104.198244-95.306927-156.347317-1.698341-2.697366-11.88839-15.784585-9.390829-17.882536 5.194927-4.195902 8.791415-9.290927 9.990244-15.584781 2.497561-14.086244-9.091122-26.274341-24.17639-27.87278 9.990244-6.693463 16.583805-17.18322 16.583805-29.171513 0-20.08039-18.182244-36.364488-40.460488-36.364487s-40.460488 16.284098-40.460488 36.364487 18.182244 36.364488 40.460488 36.364488c0.699317 0 1.398634-0.099902 1.998049-0.199805-4.49561 4.195902-7.592585 9.690537-7.992195 15.784586-0.499512 7.39278 2.997073 14.585756 8.991219 19.480975 3.196878 2.497561 12.787512 4.295805 12.587707 8.092098-5.095024 69.132488-9.990244 138.264976-14.885463 207.397463l-1.298732-1.298731c-25.175415-25.974634-50.250927-52.149073-75.426341-78.123708-16.78361-17.283122-33.367415-34.666146-50.051122-51.849366-3.896195-3.996098-11.089171-7.492683-7.192976-12.487804 4.195902-5.494634 5.794341-12.088195 4.49561-18.681757-3.69639-17.083317-19.780683-21.578927-33.467317-18.082341 4.395707-4.995122 7.093073-11.288976 7.093073-18.282146 0-16.483902-14.885463-29.770927-33.267512-29.770927-18.282146 0-33.267512 13.386927-33.267512 29.770927 0 16.483902 14.885463 29.770927 33.267512 29.770926 3.396683 0 6.693463-0.599415 9.690537-1.398634-4.795317 6.094049-6.193951 14.086244-0.999025 23.477074 4.195902 7.39278 12.088195 12.188098 21.27922 13.187121 6.493659 0.599415 8.891317-2.297756 11.288975 3.396683 7.39278 18.282146 14.685659 36.564293 22.078439 54.746537 16.384 40.56039 32.768 81.220683 49.052098 121.781073 5.594537 13.886439 11.288976 27.87278 16.883512 41.859122 0.499512 1.298732 3.896195 12.987317 5.594537 12.987317h279.527024v-2.097951 2.097951h279.527024c1.698341 0 5.095024-11.48878 5.594537-12.987317 5.594537-13.886439 11.288976-27.87278 16.883512-41.859122 16.384-40.56039 32.768-81.220683 49.052098-121.781073 7.39278-18.182244 14.685659-36.46439 22.078439-54.746537 2.397659-5.694439 4.795317-2.997073 11.288975-3.396683 9.091122-1.098927 16.983415-5.794341 21.27922-13.187121 5.194927-9.290927 3.796293-17.482927-0.999025-23.477074 3.096976 0.79922 6.293854 1.398634 9.690537 1.398634 18.282146 0 33.267512-13.287024 33.267512-29.770926 0.499512-16.284098-14.485854-29.770927-32.768-29.770927z m-596.517463 257.748293v-160.842927l93.308878 160.842927h-93.308878z m364.344195 0H601.412683l93.308878-160.842927v160.842927zM861.958244 820.398829H163.04078c-9.390829 0-17.083317 9.490732-17.083317 21.179317 0 11.788488 7.592585 21.27922 17.083317 21.27922h699.017366c9.390829 0 17.083317-9.490732 17.083317-21.27922-0.099902-11.688585-7.692488-21.179317-17.183219-21.179317zM848.27161 723.593366H176.727415V807.211707h671.644097v-83.618341h-0.099902z m-539.373269 57.74361h-51.449756c-13.386927 0-24.376195-7.592585-24.376195-16.983415s10.889366-16.983415 24.376195-16.983415h51.449756c13.386927 0 24.376195 7.592585 24.376196 16.983415 0.099902 9.390829-10.889366 16.983415-24.376196 16.983415z m104.198244-8.092098l-21.379122 8.59161-21.379122-8.59161-21.379121-8.59161 21.379121-8.591609 21.379122-8.59161 21.379122 8.691512 21.379122 8.59161-21.379122 8.491707z m135.767415 8.092098h-62.039415c-13.486829 0-24.476098-7.592585-24.476097-16.983415s10.889366-16.983415 24.476097-16.983415h62.039415c13.386927 0 24.376195 7.592585 24.376195 16.983415 0.099902 9.390829-10.789463 16.983415-24.376195 16.983415zM650.364878 773.244878l-21.379122 8.59161-21.379122-8.59161-21.379122-8.59161 21.379122-8.591609 21.379122-8.59161 21.379122 8.691512 21.379122 8.59161L650.364878 773.244878z m117.185561 8.092098h-51.449756c-13.386927 0-24.376195-7.592585-24.376195-16.983415s10.889366-16.983415 24.376195-16.983415h51.449756c13.386927 0 24.376195 7.592585 24.376195 16.983415s-10.889366 16.983415-24.376195 16.983415z" p-id="15803" fill="#F8C105"></path></svg>