<?xml version="1.0" standalone="no"?><!DOCTYPE svg PUBLIC "-//W3C//DTD SVG 1.1//EN" "http://www.w3.org/Graphics/SVG/1.1/DTD/svg11.dtd"><svg t="1606556827875" class="icon" viewBox="0 0 1024 1024" version="1.1" xmlns="http://www.w3.org/2000/svg" p-id="3774" xmlns:xlink="http://www.w3.org/1999/xlink" width="20" height="20"><defs><style type="text/css"></style></defs><path d="M252.3 743.3l235.8-42.4-147.8-179.1zM868.3 389L720.2 210.2l-355 291.2 148.2 178.8zM958 259.7l-92.6-111.9c-15.1-18.4-43.7-20.3-63.7-4.2l-53.9 44 148.1 179.1 53.9-44c19.6-16.1 23.3-44.6 8.2-63z" p-id="3775" fill="#CCCCCC"></path><path d="M890.6 545.1c-26.6 0-48.1 21.5-48.1 48.1v132c0 40-32.4 72.4-72.4 72.4H259.6c-40 0-72.4-32.4-72.4-72.4V345.4c0-40 32.4-72.4 72.4-72.4h49.6c26.6 0 48.1-21.5 48.1-48.1s-21.5-48.1-48.1-48.1h-49.6c-93.1 0-168.5 75.5-168.5 168.5v379.8c0 93.1 75.5 168.5 168.5 168.5h510.5c93.1 0 168.5-75.5 168.5-168.5v-132c0-26.5-21.5-48-48-48z" p-id="3776" fill="#CCCCCC"></path></svg>