<?xml version="1.0" standalone="no"?><!DOCTYPE svg PUBLIC "-//W3C//DTD SVG 1.1//EN" "http://www.w3.org/Graphics/SVG/1.1/DTD/svg11.dtd"><svg t="1604303474281" class="icon" viewBox="0 0 1024 1024" version="1.1" xmlns="http://www.w3.org/2000/svg" p-id="3113" xmlns:xlink="http://www.w3.org/1999/xlink" width="200" height="200"><defs><style type="text/css"></style></defs><path d="M881 828.3c0 29.1-23.6 52.7-52.7 52.7H195.9c-29.1 0-52.7-23.6-52.7-52.7V195.9c0-29.1 23.6-52.7 52.7-52.7h131.8V64.1H169.5c-58.2 0-105.4 47.2-105.4 105.4v685.2c0 58.2 47.2 105.4 105.4 105.4h685.2c58.2 0 105.4-47.2 105.4-105.4V696.6H881v131.7z m39.6-764.2H578c-21.8 0-39.5 17.7-39.5 39.5s17.7 39.5 39.5 39.5h260.3l-384 384c-15.4 15.4-15.4 40.5 0 55.9 15.4 15.4 40.5 15.4 55.9 0L881 212.2v234c0 21.8 17.7 39.5 39.5 39.5S960 468 960 446.2V103.6c0.1-21.8-17.6-39.5-39.4-39.5z" fill="#707070" p-id="3114"></path></svg>